<svg xmlns="http://www.w3.org/2000/svg" viewBox="0 0 500 500"><g id="freepik--background-simple--inject-12"><path d="M383.16,133.14a212.8,212.8,0,0,0-10.85-19C326.19,43.85,202.7,5.57,141.51,78.25,126.92,95.57,121.84,116.5,112,136.37c-22.32,45.18-64,72.2-90.2,114-20.27,32.43-17.57,74-6.26,109.06,12.29,38.1,33.92,64.71,68.52,84.94,38.79,22.67,80.27,16.38,122.2,8.49,18.85-3.55,38.29-7.17,57.57-5.82,24.14,1.7,48,8.53,71.92,11.85,24.9,3.45,50.74,4.27,74.73-3.26,76.83-24.09,95-137,63.44-201.73-11.18-22.9-30.14-40.56-47.74-58.49C407.2,176.1,395.56,157.16,383.16,133.14Z" style="fill:#407BFF"></path><path d="M383.16,133.14a212.8,212.8,0,0,0-10.85-19C326.19,43.85,202.7,5.57,141.51,78.25,126.92,95.57,121.84,116.5,112,136.37c-22.32,45.18-64,72.2-90.2,114-20.27,32.43-17.57,74-6.26,109.06,12.29,38.1,33.92,64.71,68.52,84.94,38.79,22.67,80.27,16.38,122.2,8.49,18.85-3.55,38.29-7.17,57.57-5.82,24.14,1.7,48,8.53,71.92,11.85,24.9,3.45,50.74,4.27,74.73-3.26,76.83-24.09,95-137,63.44-201.73-11.18-22.9-30.14-40.56-47.74-58.49C407.2,176.1,395.56,157.16,383.16,133.14Z" style="fill:#fff;opacity:0.7000000000000001"></path></g><g id="freepik--Floor--inject-12"><path d="M467.4,465.62H448.7a.5.5,0,1,1,0-1h18.7a.5.5,0,0,1,0,1Z" style="fill:#263238"></path><path d="M440.15,465.62H38.09a.5.5,0,0,1,0-1H440.15a.5.5,0,0,1,0,1Z" style="fill:#263238"></path></g><g id="freepik--signs-3--inject-12"><path d="M309.31,437.9a51.8,51.8,0,1,1,51.79-51.79A51.85,51.85,0,0,1,309.31,437.9Zm0-102.59a50.8,50.8,0,1,0,50.79,50.8A50.86,50.86,0,0,0,309.31,335.31Z" style="fill:#263238"></path><path d="M309.31,433.93a47.83,47.83,0,1,1,47.82-47.82A47.88,47.88,0,0,1,309.31,433.93Zm0-94.65a46.83,46.83,0,1,0,46.82,46.83A46.89,46.89,0,0,0,309.31,339.28Z" style="fill:#263238"></path><path d="M351.41,394.3h-84.2V378.87h84.2Zm-83.2-1h82.2V379.87h-82.2Z" style="fill:#263238"></path><path d="M86.53,285.05a51.8,51.8,0,1,1,51.8-51.8A51.86,51.86,0,0,1,86.53,285.05Zm0-102.59a50.8,50.8,0,1,0,50.8,50.79A50.85,50.85,0,0,0,86.53,182.46Z" style="fill:#263238"></path><path d="M86.53,281.08a47.83,47.83,0,1,1,47.82-47.83A47.88,47.88,0,0,1,86.53,281.08Zm0-94.65a46.83,46.83,0,1,0,46.82,46.82A46.88,46.88,0,0,0,86.53,186.43Z" style="fill:#263238"></path><path d="M128.63,241.45H44.43V226h84.2Zm-83.2-1h82.2V227H45.43Z" style="fill:#263238"></path><path d="M444.86,134.36a22.88,22.88,0,1,1,22.87-22.87A22.9,22.9,0,0,1,444.86,134.36Zm0-44.75a21.88,21.88,0,1,0,21.87,21.88A21.9,21.9,0,0,0,444.86,89.61Z" style="fill:#263238"></path><path d="M444.86,132.62A21.14,21.14,0,1,1,466,111.49,21.16,21.16,0,0,1,444.86,132.62Zm0-41.27A20.14,20.14,0,1,0,465,111.49,20.16,20.16,0,0,0,444.86,91.35Z" style="fill:#263238"></path><path d="M463.5,115.34H426.22v-7.29H463.5Zm-36.28-1H462.5v-5.29H427.22Z" style="fill:#263238"></path></g><g id="freepik--signs-2--inject-12"><path d="M267.36,101.9l-44.7-44.69,44.7-44.69,44.69,44.69ZM224.08,57.21l43.28,43.28,43.27-43.28L267.36,13.93Z" style="fill:#263238"></path><path d="M267.36,98.4,226.17,57.21,267.36,16l41.18,41.18ZM226.88,57.21l40.48,40.48,40.47-40.48L267.36,16.73Z" style="fill:#263238"></path><path d="M260.43,43.38V33.66h2.38a4.72,4.72,0,0,1,1.92.32,1.85,1.85,0,0,1,1,1,4.46,4.46,0,0,1,.29,1.73v3.54a4.67,4.67,0,0,1-.29,1.77,1.9,1.9,0,0,1-1,1,4.45,4.45,0,0,1-1.89.33Zm2-1.38h.42a1.42,1.42,0,0,0,.79-.17.82.82,0,0,0,.29-.52,5,5,0,0,0,.06-.85v-4a3,3,0,0,0-.08-.81.66.66,0,0,0-.31-.45,1.45,1.45,0,0,0-.76-.15h-.41Z" style="fill:#263238"></path><path d="M271.22,43.51a3.25,3.25,0,0,1-1.69-.38,2.13,2.13,0,0,1-.9-1.1,4.83,4.83,0,0,1-.27-1.71V36.7a4.79,4.79,0,0,1,.27-1.71,2.09,2.09,0,0,1,.9-1.08,3.26,3.26,0,0,1,1.69-.37,3.33,3.33,0,0,1,1.71.38,2.09,2.09,0,0,1,.9,1.08,4.74,4.74,0,0,1,.27,1.7v3.62a4.83,4.83,0,0,1-.27,1.71,2.13,2.13,0,0,1-.9,1.1A3.33,3.33,0,0,1,271.22,43.51Zm0-1.43a.75.75,0,0,0,.56-.17.88.88,0,0,0,.24-.47,3.06,3.06,0,0,0,.06-.63V36.22a3.06,3.06,0,0,0-.06-.63.89.89,0,0,0-.24-.46.8.8,0,0,0-.56-.17.78.78,0,0,0-.54.17.89.89,0,0,0-.24.46,3.06,3.06,0,0,0-.06.63v4.59a4,4,0,0,0,.05.63.88.88,0,0,0,.24.47A.74.74,0,0,0,271.22,42.08Z" style="fill:#263238"></path><path d="M257.35,57.78V48.06h1.38l2.16,5.06V48.06h1.64v9.72h-1.32l-2.16-5.38v5.38Z" style="fill:#263238"></path><path d="M267.91,57.91a3.28,3.28,0,0,1-1.69-.38,2.16,2.16,0,0,1-.89-1.1,4.87,4.87,0,0,1-.27-1.71V51.1a4.79,4.79,0,0,1,.27-1.71,2.12,2.12,0,0,1,.89-1.08,3.28,3.28,0,0,1,1.69-.37,3.33,3.33,0,0,1,1.71.38,2.09,2.09,0,0,1,.9,1.08,4.74,4.74,0,0,1,.27,1.7v3.62a4.87,4.87,0,0,1-.27,1.71,2.13,2.13,0,0,1-.9,1.1A3.33,3.33,0,0,1,267.91,57.91Zm0-1.43a.78.78,0,0,0,.57-.17.88.88,0,0,0,.24-.47,3.06,3.06,0,0,0,.06-.63V50.62a3.06,3.06,0,0,0-.06-.63.89.89,0,0,0-.24-.46.78.78,0,0,0-.57-.17.73.73,0,0,0-.54.17.89.89,0,0,0-.24.46,3.06,3.06,0,0,0-.06.63v4.59a3.06,3.06,0,0,0,.06.63.81.81,0,0,0,.23.47A.76.76,0,0,0,267.91,56.48Z" style="fill:#263238"></path><path d="M274.15,57.78V49.54h-1.5V48.06h5v1.48h-1.47v8.24Z" style="fill:#263238"></path><path d="M250.84,72.18V62.46h4.23v1.37h-2.25v2.58h1.74v1.38h-1.74v3h2.28v1.34Z" style="fill:#263238"></path><path d="M257.29,72.18V62.46h1.38l2.16,5.06V62.46h1.64v9.72h-1.32L259,66.8v5.38Z" style="fill:#263238"></path><path d="M266.05,72.18V63.94h-1.5V62.46h5v1.48h-1.47v8.24Z" style="fill:#263238"></path><path d="M271.6,72.18V62.46h4.23v1.37h-2.25v2.58h1.74v1.38h-1.74v3h2.28v1.34Z" style="fill:#263238"></path><path d="M278.05,72.18V62.46h2.52a5.59,5.59,0,0,1,1.69.22,2,2,0,0,1,1.08.79,2.77,2.77,0,0,1,.38,1.56,5.54,5.54,0,0,1-.1,1.06,2,2,0,0,1-.36.8,1.88,1.88,0,0,1-.73.55l1.34,4.74h-2l-1.12-4.4H280v4.4Zm2-5.58h.58a1.51,1.51,0,0,0,.76-.16.87.87,0,0,0,.39-.47,2.5,2.5,0,0,0,.11-.79,1.73,1.73,0,0,0-.25-1,1,1,0,0,0-.91-.36H280Z" style="fill:#263238"></path><path d="M62.78,410.27,18.09,365.58l44.69-44.69,44.69,44.69ZM19.5,365.58l43.28,43.28,43.28-43.28L62.78,322.3Z" style="fill:#263238"></path><path d="M62.78,406.77,21.6,365.58,62.78,324.4,104,365.58ZM22.3,365.58l40.48,40.48,40.48-40.48L62.78,325.11Z" style="fill:#263238"></path><path d="M55.86,351.75V342h2.37a4.74,4.74,0,0,1,1.93.32,1.88,1.88,0,0,1,1,1,4.5,4.5,0,0,1,.28,1.73v3.54a4.78,4.78,0,0,1-.28,1.78,2,2,0,0,1-1,1,4.39,4.39,0,0,1-1.89.33Zm2-1.38h.42a1.39,1.39,0,0,0,.78-.17.78.78,0,0,0,.3-.52,5,5,0,0,0,.06-.84v-4a3.44,3.44,0,0,0-.08-.81.69.69,0,0,0-.31-.45,1.49,1.49,0,0,0-.77-.15h-.4Z" style="fill:#263238"></path><path d="M66.64,351.88A3.18,3.18,0,0,1,65,351.5a2.16,2.16,0,0,1-.89-1.1,4.79,4.79,0,0,1-.27-1.71v-3.62a4.83,4.83,0,0,1,.27-1.71,2.12,2.12,0,0,1,.89-1.08,3.39,3.39,0,0,1,1.69-.37,3.31,3.31,0,0,1,1.71.38,2.09,2.09,0,0,1,.9,1.08,4.53,4.53,0,0,1,.27,1.7v3.62a4.58,4.58,0,0,1-.27,1.71,2.13,2.13,0,0,1-.9,1.1A3.21,3.21,0,0,1,66.64,351.88Zm0-1.42a.78.78,0,0,0,.57-.18.85.85,0,0,0,.24-.47,3.06,3.06,0,0,0,.06-.63v-4.59a3.13,3.13,0,0,0-.06-.63.89.89,0,0,0-.24-.46.83.83,0,0,0-.57-.17.79.79,0,0,0-.54.17.89.89,0,0,0-.24.46,3.13,3.13,0,0,0-.06.63v4.59a3.06,3.06,0,0,0,.06.63.78.78,0,0,0,.23.47A.76.76,0,0,0,66.64,350.46Z" style="fill:#263238"></path><path d="M52.78,366.15v-9.72h1.38l2.16,5.07v-5.07H58v9.72H56.63l-2.16-5.37v5.37Z" style="fill:#263238"></path><path d="M63.34,366.28a3.16,3.16,0,0,1-1.69-.38,2.13,2.13,0,0,1-.9-1.1,4.79,4.79,0,0,1-.27-1.71v-3.62a4.83,4.83,0,0,1,.27-1.71,2.09,2.09,0,0,1,.9-1.08,4,4,0,0,1,3.4,0,2.09,2.09,0,0,1,.9,1.08,4.74,4.74,0,0,1,.27,1.7v3.62A4.79,4.79,0,0,1,66,364.8a2.13,2.13,0,0,1-.9,1.1A3.24,3.24,0,0,1,63.34,366.28Zm0-1.42a.77.77,0,0,0,.56-.18.85.85,0,0,0,.24-.47,3.06,3.06,0,0,0,.06-.63V359a3.13,3.13,0,0,0-.06-.63.89.89,0,0,0-.24-.46.81.81,0,0,0-.56-.17.78.78,0,0,0-.54.17.89.89,0,0,0-.24.46,3.13,3.13,0,0,0-.06.63v4.59a4,4,0,0,0,0,.63.85.85,0,0,0,.24.47A.74.74,0,0,0,63.34,364.86Z" style="fill:#263238"></path><path d="M69.58,366.15v-8.24h-1.5v-1.48h5v1.48H71.57v8.24Z" style="fill:#263238"></path><path d="M46.26,380.55v-9.72H50.5v1.37H48.24v2.58H50v1.38H48.24v3h2.28v1.34Z" style="fill:#263238"></path><path d="M52.72,380.55v-9.72H54.1l2.16,5.07v-5.07h1.63v9.72H56.57l-2.16-5.37v5.37Z" style="fill:#263238"></path><path d="M61.48,380.55v-8.24H60v-1.48h5v1.48H63.47v8.24Z" style="fill:#263238"></path><path d="M67,380.55v-9.72h4.24v1.37H69v2.58h1.74v1.38H69v3h2.28v1.34Z" style="fill:#263238"></path><path d="M73.48,380.55v-9.72H76a6,6,0,0,1,1.69.22,2,2,0,0,1,1.07.79,2.73,2.73,0,0,1,.38,1.56,4.83,4.83,0,0,1-.1,1.06,2.14,2.14,0,0,1-.36.81,1.73,1.73,0,0,1-.73.54l1.35,4.74h-2l-1.12-4.4h-.69v4.4Zm2-5.58H76a1.6,1.6,0,0,0,.76-.15.93.93,0,0,0,.39-.48,2.22,2.22,0,0,0,.11-.78,1.85,1.85,0,0,0-.24-1,1,1,0,0,0-.92-.35h-.67Z" style="fill:#263238"></path><path d="M446.6,345.66,415.55,314.6l31.05-31.05,31,31.05ZM417,314.6l29.64,29.64,29.64-29.64L446.6,285Z" style="fill:#263238"></path><path d="M446.6,343.13,418.08,314.6l28.52-28.52,28.52,28.52ZM418.78,314.6l27.82,27.82,27.82-27.82L446.6,286.79Z" style="fill:#263238"></path><path d="M441.82,305.06v-6.7h1.64a3.2,3.2,0,0,1,1.33.22,1.24,1.24,0,0,1,.67.68,3,3,0,0,1,.2,1.2v2.44a3.1,3.1,0,0,1-.2,1.23,1.29,1.29,0,0,1-.66.7,2.93,2.93,0,0,1-1.31.23Zm1.37-.95h.29A.94.94,0,0,0,444,304a.5.5,0,0,0,.2-.36,3.15,3.15,0,0,0,0-.58v-2.77a2.1,2.1,0,0,0-.05-.55.51.51,0,0,0-.21-.31,1,1,0,0,0-.53-.1h-.28Z" style="fill:#263238"></path><path d="M449.27,305.15a2.25,2.25,0,0,1-1.17-.26,1.51,1.51,0,0,1-.62-.76,3.43,3.43,0,0,1-.19-1.18v-2.5a3.43,3.43,0,0,1,.19-1.18,1.46,1.46,0,0,1,.62-.74,2.25,2.25,0,0,1,1.17-.26,2.28,2.28,0,0,1,1.17.26,1.54,1.54,0,0,1,.63.75,3.35,3.35,0,0,1,.18,1.17V303a3.45,3.45,0,0,1-.18,1.18,1.52,1.52,0,0,1-.63.76A2.28,2.28,0,0,1,449.27,305.15Zm0-1a.52.52,0,0,0,.38-.12.58.58,0,0,0,.17-.33,2,2,0,0,0,0-.43v-3.17a2,2,0,0,0,0-.43.59.59,0,0,0-.17-.32.52.52,0,0,0-.38-.12.54.54,0,0,0-.38.12.57.57,0,0,0-.16.32,2,2,0,0,0,0,.43v3.17a2.9,2.9,0,0,0,0,.43.64.64,0,0,0,.16.33A.55.55,0,0,0,449.27,304.17Z" style="fill:#263238"></path><path d="M439.7,315v-6.71h.95l1.49,3.49v-3.49h1.13V315h-.91l-1.49-3.71V315Z" style="fill:#263238"></path><path d="M447,315.09a2.14,2.14,0,0,1-1.16-.27,1.42,1.42,0,0,1-.62-.76,3.37,3.37,0,0,1-.19-1.17v-2.51a3.37,3.37,0,0,1,.19-1.17,1.44,1.44,0,0,1,.62-.75,2.25,2.25,0,0,1,1.16-.25,2.22,2.22,0,0,1,1.18.26,1.41,1.41,0,0,1,.62.74,3.19,3.19,0,0,1,.19,1.17v2.51a3.15,3.15,0,0,1-.19,1.17,1.42,1.42,0,0,1-.62.76A2.22,2.22,0,0,1,447,315.09Zm0-1a.54.54,0,0,0,.39-.12.59.59,0,0,0,.17-.32,2.06,2.06,0,0,0,0-.44v-3.17a2,2,0,0,0,0-.43.59.59,0,0,0-.17-.32.54.54,0,0,0-.39-.12.51.51,0,0,0-.37.12.57.57,0,0,0-.16.32,2,2,0,0,0-.05.43v3.17a3,3,0,0,0,0,.44.65.65,0,0,0,.16.32A.54.54,0,0,0,447,314.1Z" style="fill:#263238"></path><path d="M451.29,315v-5.69h-1v-1h3.43v1h-1V315Z" style="fill:#263238"></path><path d="M435.2,324.93v-6.71h2.93v.95h-1.56V321h1.2v.95h-1.2V324h1.57v.93Z" style="fill:#263238"></path><path d="M439.66,324.93v-6.71h.95l1.49,3.5v-3.5h1.13v6.71h-.91l-1.5-3.71v3.71Z" style="fill:#263238"></path><path d="M445.7,324.93v-5.69h-1v-1h3.42v1h-1v5.69Z" style="fill:#263238"></path><path d="M449.53,324.93v-6.71h2.92v.95h-1.56V321h1.2v.95h-1.2V324h1.57v.93Z" style="fill:#263238"></path><path d="M454,324.93v-6.71h1.74a3.91,3.91,0,0,1,1.16.16,1.38,1.38,0,0,1,.75.54,2,2,0,0,1,.26,1.08,3.93,3.93,0,0,1-.07.73,1.39,1.39,0,0,1-.25.55,1.21,1.21,0,0,1-.5.38l.92,3.27H456.6l-.77-3h-.48v3Zm1.37-3.85h.39a1,1,0,0,0,.52-.11.57.57,0,0,0,.27-.32,1.49,1.49,0,0,0,.08-.55,1.17,1.17,0,0,0-.17-.7.69.69,0,0,0-.63-.25h-.46Z" style="fill:#263238"></path></g><g id="freepik--sign-1--inject-12"><circle cx="346.1" cy="215.75" r="106.27" style="fill:#263238"></circle><path d="M346.1,322.52A106.77,106.77,0,1,1,452.87,215.75,106.89,106.89,0,0,1,346.1,322.52Zm0-212.54A105.77,105.77,0,1,0,451.87,215.75,105.89,105.89,0,0,0,346.1,110Z" style="fill:#263238"></path><path d="M346.1,314.28a98.54,98.54,0,1,1,98.53-98.53A98.64,98.64,0,0,1,346.1,314.28Zm0-196.07a97.54,97.54,0,1,0,97.53,97.54A97.65,97.65,0,0,0,346.1,118.21Z" style="fill:#407BFF"></path><rect x="259.92" y="201.8" width="172.35" height="29.89" style="fill:#407BFF"></rect><path d="M281.42,195.25V164.79h7.45a14.82,14.82,0,0,1,6,1A5.89,5.89,0,0,1,298,168.9a14.07,14.07,0,0,1,.9,5.44v11.1A14.7,14.7,0,0,1,298,191a6,6,0,0,1-3,3.22,13.8,13.8,0,0,1-5.92,1Zm6.2-4.32h1.32a4.21,4.21,0,0,0,2.47-.55,2.48,2.48,0,0,0,.92-1.61,16.49,16.49,0,0,0,.18-2.66V173.55a10.86,10.86,0,0,0-.24-2.54,2.2,2.2,0,0,0-1-1.41,4.75,4.75,0,0,0-2.39-.45h-1.28Z" style="fill:#407BFF"></path><path d="M315.23,195.67a10,10,0,0,1-5.3-1.21,6.68,6.68,0,0,1-2.8-3.44,15,15,0,0,1-.85-5.36V174.3a14.88,14.88,0,0,1,.85-5.34,6.47,6.47,0,0,1,2.8-3.38,12.68,12.68,0,0,1,10.66,0,6.55,6.55,0,0,1,2.82,3.39,14.73,14.73,0,0,1,.85,5.32v11.36a15,15,0,0,1-.85,5.36,6.63,6.63,0,0,1-2.82,3.44A10.16,10.16,0,0,1,315.23,195.67Zm0-4.48a2.47,2.47,0,0,0,1.77-.54,2.72,2.72,0,0,0,.75-1.47,9.57,9.57,0,0,0,.19-2V172.8a9.31,9.31,0,0,0-.19-2,2.7,2.7,0,0,0-.75-1.45,2.47,2.47,0,0,0-1.77-.54,2.37,2.37,0,0,0-1.69.54,2.7,2.7,0,0,0-.75,1.45,9.31,9.31,0,0,0-.19,2v14.4a11.23,11.23,0,0,0,.17,2,2.7,2.7,0,0,0,.73,1.47A2.44,2.44,0,0,0,315.23,191.19Z" style="fill:#407BFF"></path><path d="M345.33,195.25V164.79h4.32l6.77,15.87V164.79h5.12v30.46H357.4l-6.77-16.85v16.85Z" style="fill:#407BFF"></path><path d="M378.43,195.67a10,10,0,0,1-5.31-1.21,6.68,6.68,0,0,1-2.8-3.44,15.26,15.26,0,0,1-.85-5.36V174.3a15.1,15.1,0,0,1,.85-5.34,6.47,6.47,0,0,1,2.8-3.38,12.7,12.7,0,0,1,10.67,0,6.64,6.64,0,0,1,2.82,3.39,15,15,0,0,1,.84,5.32v11.36a15.27,15.27,0,0,1-.84,5.36,6.72,6.72,0,0,1-2.82,3.44A10.21,10.21,0,0,1,378.43,195.67Zm0-4.48a2.46,2.46,0,0,0,1.76-.54,2.72,2.72,0,0,0,.75-1.47,9.57,9.57,0,0,0,.19-2V172.8a9.31,9.31,0,0,0-.19-2,2.7,2.7,0,0,0-.75-1.45,2.46,2.46,0,0,0-1.76-.54,2.38,2.38,0,0,0-1.7.54,2.84,2.84,0,0,0-.75,1.45,9.31,9.31,0,0,0-.19,2v14.4a11.23,11.23,0,0,0,.17,2,2.7,2.7,0,0,0,.73,1.47A2.45,2.45,0,0,0,378.43,191.19Z" style="fill:#407BFF"></path><path d="M398,195.25V169.41h-4.7v-4.62h15.58v4.62h-4.63v25.84Z" style="fill:#407BFF"></path><path d="M293,271.09V240.63h13.28v4.28h-7.08V253h5.46v4.33h-5.46v9.55h7.15v4.21Z" style="fill:#407BFF"></path><path d="M313.18,271.09V240.63h4.33l6.77,15.87V240.63h5.12v30.46h-4.14l-6.77-16.85v16.85Z" style="fill:#407BFF"></path><path d="M340.64,271.09V245.25h-4.7v-4.62h15.57v4.62h-4.62v25.84Z" style="fill:#407BFF"></path><path d="M358,271.09V240.63H371.3v4.28h-7.07V253h5.45v4.33h-5.45v9.55h7.14v4.21Z" style="fill:#407BFF"></path><path d="M378.26,271.09V240.63h7.89a17.82,17.82,0,0,1,5.29.69,6.17,6.17,0,0,1,3.38,2.47,8.66,8.66,0,0,1,1.19,4.89,15.64,15.64,0,0,1-.32,3.32,6.31,6.31,0,0,1-1.13,2.52,5.59,5.59,0,0,1-2.27,1.72l4.21,14.85h-6.36l-3.5-13.8h-2.18v13.8Zm6.2-17.49h1.81a4.81,4.81,0,0,0,2.37-.49,2.69,2.69,0,0,0,1.22-1.48,7.36,7.36,0,0,0,.36-2.47,5.64,5.64,0,0,0-.77-3.21,3.29,3.29,0,0,0-2.88-1.11h-2.11Z" style="fill:#407BFF"></path></g><g id="freepik--Character--inject-12"><path d="M220.48,459.24c-.51-.77-9-7.94-9-7.94s-5.11-9.21-4.86-10,.77-3.58,1.54-6.39-2-5.38-2-5.38.77-30.89,1.79-36.26.26-14.84-.77-18.42-3.58-16.12-3.58-16.12,2-4.1,2.3-6.65,1-42.38,1.28-44.17-3.32-4.86-3.32-4.86l-5.38-53.73-37.1,2.3-37.1-2.3-5.37,53.73s-3.59,3.07-3.33,4.86,1,41.61,1.28,44.17,2.3,6.65,2.3,6.65-2.56,12.54-3.58,16.12-1.79,13.05-.77,18.42,1.79,36.26,1.79,36.26-2.81,2.56-2,5.38,1.28,5.63,1.53,6.39-4.86,10-4.86,10-8.44,7.17-9,7.94.76,5.88.76,5.88H132.2a13.37,13.37,0,0,0,1.54-7.42,76.19,76.19,0,0,0-1-8.7l.52-5.12s3.32-3.07,3.32-4.6-2-8.45-1.79-9.47,10.24-51.62,10.49-54.69.26-11,.51-13.81a45.44,45.44,0,0,1,1-5.89l12.28-63.09h4.6L176,355.42a46.35,46.35,0,0,1,1,5.89c.26,2.81.26,10.74.51,13.81s10.24,53.67,10.49,54.69-1.79,7.93-1.79,9.47,3.33,4.6,3.33,4.6L190,449a74.93,74.93,0,0,0-1,8.7,13.32,13.32,0,0,0,1.53,7.42h29.17S221,460,220.48,459.24Z" style="fill:#263238"></path><path d="M219.71,465.62H190.54a.5.5,0,0,1-.42-.23,13.77,13.77,0,0,1-1.61-7.72,74.29,74.29,0,0,1,1-8.69l-.49-4.86c-.8-.76-3.35-3.28-3.35-4.84a30.37,30.37,0,0,1,.89-4.55,29.17,29.17,0,0,0,.92-4.8c-.09-.36-10.24-51.55-10.51-54.76-.12-1.54-.19-4.3-.25-7s-.13-5.45-.26-6.85a44.91,44.91,0,0,0-1-5.81l-12.21-62.71h-3.78l-12.2,62.69a43.6,43.6,0,0,0-1,5.83c-.13,1.4-.19,4.17-.25,6.85s-.13,5.43-.26,7c-.27,3.21-10.41,54.4-10.5,54.76a28.85,28.85,0,0,0,.91,4.8,30.37,30.37,0,0,1,.89,4.55c0,1.56-2.54,4.08-3.34,4.84l-.49,4.86a79.36,79.36,0,0,1,1,8.69,13.73,13.73,0,0,1-1.62,7.72.5.5,0,0,1-.42.23H103a.49.49,0,0,1-.48-.38c-.5-2-1.25-5.45-.7-6.28s7.41-6.65,9-8c2.32-4.19,4.73-8.9,4.76-9.59-.1-.27-.26-1-.48-2-.27-1.24-.61-2.79-1-4.37-.74-2.68,1.38-5.07,2-5.71-.07-2.78-.82-30.93-1.78-36-1-5.45-.24-15.07.78-18.65.94-3.3,3.23-14.41,3.54-15.91a25.15,25.15,0,0,1-2.28-6.67c-.12-1.27-.37-11.19-.62-21.68-.25-10.12-.53-21.58-.65-22.47-.27-1.84,2.57-4.49,3.34-5.17l5.35-53.54a.51.51,0,0,1,.53-.45l37.1,2.3,37-2.3a.51.51,0,0,1,.53.45l5.35,53.54c.77.68,3.61,3.33,3.35,5.17-.13.89-.41,12.35-.65,22.47-.26,10.49-.5,20.41-.63,21.68a25.15,25.15,0,0,1-2.28,6.67c.31,1.5,2.6,12.61,3.54,15.91,1,3.58,1.82,13.2.78,18.65-1,5-1.7,33.19-1.78,36,.64.64,2.76,3,2,5.71-.43,1.57-.77,3.13-1.05,4.37-.22,1-.37,1.69-.49,2.05,0,.6,2.45,5.31,4.78,9.5,1.56,1.33,8.46,7.2,9,8s-.2,4.29-.69,6.28A.51.51,0,0,1,219.71,465.62Zm-28.88-1h28.49c.52-2.19.93-4.66.74-5.11-.42-.58-5.65-5.1-8.86-7.83a.35.35,0,0,1-.11-.13c-3.47-6.24-5.12-9.74-4.9-10.38.1-.31.26-1,.46-2,.28-1.25.63-2.81,1.06-4.41.68-2.49-1.87-4.85-1.9-4.88a.51.51,0,0,1-.16-.38c0-1.26.78-31,1.8-36.34s.24-14.7-.76-18.19-3.48-15.65-3.59-16.16a.5.5,0,0,1,0-.32s2-4,2.26-6.48c.12-1.24.37-11.59.62-21.61.27-11.12.52-21.63.66-22.58.16-1.1-1.85-3.29-3.16-4.41a.47.47,0,0,1-.17-.33L198,249.87l-36.62,2.27-36.68-2.27-5.33,53.25a.47.47,0,0,1-.17.33c-1.3,1.12-3.31,3.31-3.15,4.41.13.95.39,11.46.66,22.58.24,10,.49,20.37.62,21.61.24,2.43,2.23,6.44,2.25,6.48a.45.45,0,0,1,0,.32c-.1.51-2.57,12.6-3.59,16.16s-1.77,12.87-.76,18.19,1.77,35.08,1.8,36.34a.45.45,0,0,1-.16.38s-2.58,2.39-1.9,4.88c.44,1.6.78,3.16,1.06,4.42.2.91.36,1.64.47,1.95.21.64-1.44,4.14-4.9,10.38a.47.47,0,0,1-.11.13c-3.23,2.74-8.49,7.29-8.87,7.83-.19.43.22,2.91.75,5.11h28.48a13.58,13.58,0,0,0,1.33-6.89,74.91,74.91,0,0,0-1-8.64.33.33,0,0,1,0-.14l.51-5.12a.47.47,0,0,1,.16-.31c1.22-1.14,3.16-3.28,3.16-4.24a33.09,33.09,0,0,0-.86-4.32c-.74-3.13-1.06-4.67-.91-5.27.09-.36,10.21-51.4,10.47-54.61.13-1.51.19-4.25.26-6.91.06-2.81.13-5.47.26-6.91a45,45,0,0,1,1-6l12.28-63.07a.49.49,0,0,1,.49-.4h4.6a.51.51,0,0,1,.5.4l12.28,63.1a46.72,46.72,0,0,1,1,5.93c.13,1.44.19,4.1.26,6.91.06,2.66.12,5.4.25,6.91.27,3.21,10.39,54.25,10.48,54.61.15.6-.18,2.14-.92,5.27a33.09,33.09,0,0,0-.86,4.32c0,1,1.94,3.1,3.17,4.24a.52.52,0,0,1,.16.31l.51,5.12a.66.66,0,0,1,0,.14,76.24,76.24,0,0,0-1,8.64A13.5,13.5,0,0,0,190.83,464.62Z" style="fill:#263238"></path><path d="M143.73,152.45s-27.14,7.39-27.14,7.94,8.68,93.42,8.68,93.42H198l5-100.62a51.29,51.29,0,0,0-4.43-2.77c-.93-.37-21.6.37-21.6.37Z" style="fill:#263238"></path><path d="M198,254.31H125.27a.51.51,0,0,1-.5-.45c-.89-9.51-8.68-92.91-8.68-93.47s0-.94,27.51-8.42l.11,0,33.23-1.66c4.88-.17,20.87-.71,21.81-.33a45,45,0,0,1,4.53,2.82.5.5,0,0,1,.22.43l-5,100.62A.5.5,0,0,1,198,254.31Zm-72.28-1h71.81l4.94-99.87a45.18,45.18,0,0,0-4.1-2.56c-.9-.22-13.6.13-21.4.41L143.81,153c-9.88,2.69-24.64,6.82-26.7,7.71C117.57,166,125.09,246.48,125.73,253.31Z" style="fill:#263238"></path><rect x="124.18" y="247.16" width="74.66" height="9.43" style="fill:#696969"></rect><path d="M198.84,257.09H124.18a.51.51,0,0,1-.5-.5v-9.43a.5.5,0,0,1,.5-.5h74.66a.5.5,0,0,1,.5.5v9.43A.51.51,0,0,1,198.84,257.09Zm-74.16-1h73.66v-8.43H124.68Z" style="fill:#263238"></path><path d="M160.9,174.79c4.25,1.48,17.91-23.82,17.91-23.82l.08-.25-1.92.07-33.24,1.66S156.66,173.31,160.9,174.79Z" style="fill:#407BFF"></path><path d="M161.23,175.34a1.33,1.33,0,0,1-.49-.08h0c-4.36-1.51-16.9-21.69-17.43-22.55a.48.48,0,0,1,0-.49.49.49,0,0,1,.42-.27l33.23-1.66,1.94-.07a.48.48,0,0,1,.41.2.5.5,0,0,1,.08.46l-.08.25C177,155.35,166,175.34,161.23,175.34Zm-16.62-22.43c3.89,6.21,13.24,20.29,16.46,21.41h0c2.78,1,11.77-13.43,17-23.07l-1.11,0Z" style="fill:#263238"></path><polygon points="146.32 135.1 144.84 149.87 161.27 166.67 176.23 148.94 172.72 135.1 146.32 135.1" style="fill:#fff"></polygon><path d="M161.27,167.17a.51.51,0,0,1-.35-.15l-16.44-16.8a.55.55,0,0,1-.14-.4l1.48-14.77a.5.5,0,0,1,.5-.45h26.4a.48.48,0,0,1,.48.37l3.51,13.85a.52.52,0,0,1-.1.45l-15,17.72a.5.5,0,0,1-.36.18Zm-15.91-17.49,15.89,16.24,14.43-17.1-3.35-13.22H146.77Z" style="fill:#263238"></path><path d="M142,116.66s-2.14-1.53-3.06,1.37a8,8,0,0,0,.77,6.57c.76,1.23,2.75,4.13,2.75,4.13Z" style="fill:#fff"></path><path d="M142.48,129.23a.52.52,0,0,1-.42-.22c-.08-.12-2-2.92-2.76-4.14a8.51,8.51,0,0,1-.81-7,2.8,2.8,0,0,1,1.65-2,2.67,2.67,0,0,1,2.17.39.51.51,0,0,1,.21.39l.46,12.07a.49.49,0,0,1-.35.49A.4.4,0,0,1,142.48,129.23Zm-1.69-12.47a1,1,0,0,0-.34,0c-.43.15-.77.61-1,1.37a7.5,7.5,0,0,0,.71,6.16c.4.64,1.15,1.76,1.76,2.67L141.53,117A1.71,1.71,0,0,0,140.79,116.76Z" style="fill:#263238"></path><path d="M176.4,116.66s2.14-1.53,3,1.37a8,8,0,0,1-.76,6.57c-.76,1.23-2.75,4.13-2.75,4.13Z" style="fill:#fff"></path><path d="M175.94,129.23l-.16,0a.5.5,0,0,1-.34-.49l.46-12.07a.48.48,0,0,1,.21-.39,2.67,2.67,0,0,1,2.17-.39,2.8,2.8,0,0,1,1.65,2,8.45,8.45,0,0,1-.82,7c-.76,1.22-2.68,4-2.76,4.14A.49.49,0,0,1,175.94,129.23Zm.95-12.28L176.51,127c.61-.91,1.36-2,1.76-2.67a7.54,7.54,0,0,0,.71-6.16c-.24-.76-.58-1.22-1-1.37A1.44,1.44,0,0,0,176.89,117Z" style="fill:#263238"></path><path d="M142,113.6s.3,17,1.22,19.71,10.24,11,12.38,12.08,7.18.91,9.32,0,9.17-8.1,10.69-12.53,0-19.87,0-19.87-3.2-7.79-10.23-11.31-14.06-.3-17.42,2.45S142,113.6,142,113.6Z" style="fill:#fff"></path><path d="M160.07,146.63a11.41,11.41,0,0,1-4.68-.8c-2.07-1-11.62-9.35-12.62-12.36-.93-2.79-1.24-19.16-1.25-19.86a.63.63,0,0,1,0-.19c.11-.28,2.69-6.88,6.11-9.68,4-3.29,11.13-5.92,18-2.5,7.11,3.55,10.34,11.24,10.48,11.56a.35.35,0,0,1,0,.14c.06.64,1.52,15.6,0,20.08s-8.68,11.84-11,12.82A14.26,14.26,0,0,1,160.07,146.63Zm-17.55-32.94c.11,5.88.49,17.36,1.19,19.47.86,2.57,10,10.73,12.13,11.78s6.89.85,8.9,0,9-8,10.42-12.24.1-18.4,0-19.57c-.32-.75-3.53-7.77-10-11s-13.09-.71-16.88,2.39C145.28,107,142.84,112.9,142.52,113.69Z" style="fill:#263238"></path><path d="M145.53,115.9c-1.83.3-2.44,1.22-2.14,1.83s0,3.36,1.38,4.74,2.6,2.13,5.81,2.13,4.58-.45,5.19-1.07a49.77,49.77,0,0,0,2.9-5.34l.61-1.84h-2.13S147.37,115.59,145.53,115.9Z" style="fill:#263238"></path><path d="M150.58,125.1c-3.28,0-4.65-.77-6.16-2.28-1.08-1.08-1.24-2.82-1.35-4a5.14,5.14,0,0,0-.12-.9,1.26,1.26,0,0,1,0-1.15,3.26,3.26,0,0,1,2.48-1.4c1.87-.31,11.33.42,11.74.45h2.09a.49.49,0,0,1,.41.21.52.52,0,0,1,.07.45l-.61,1.84a44.56,44.56,0,0,1-3,5.54C155.28,124.73,153.57,125.1,150.58,125.1ZM147,116.32a9.46,9.46,0,0,0-1.41.07h0a2.4,2.4,0,0,0-1.76.86.27.27,0,0,0,0,.25,3.82,3.82,0,0,1,.23,1.26c.1,1.07.23,2.53,1.05,3.35,1.17,1.17,2.24,2,5.46,2,2.6,0,4.22-.31,4.84-.92a44.84,44.84,0,0,0,2.8-5.21l.37-1.12h-1.44C154.43,116.64,149.57,116.32,147,116.32Zm-1.5-.42h0Z" style="fill:#263238"></path><path d="M173,115.9c-1.84-.31-11.62.45-11.62.45h-2.14l.62,1.84a49.77,49.77,0,0,0,2.9,5.34c.61.62,2,1.07,5.19,1.07s4.44-.76,5.81-2.13,1.07-4.13,1.38-4.74S174.87,116.2,173,115.9Z" style="fill:#263238"></path><path d="M168,125.1c-3,0-4.7-.37-5.54-1.21a43.41,43.41,0,0,1-3-5.49l-.64-1.89a.52.52,0,0,1,.07-.45.49.49,0,0,1,.4-.21h2.14c.37,0,9.83-.76,11.7-.45h0a3.26,3.26,0,0,1,2.48,1.4,1.26,1.26,0,0,1,0,1.15,5.14,5.14,0,0,0-.12.9c-.11,1.15-.27,2.89-1.35,4C172.64,124.33,171.27,125.1,168,125.1Zm-8-8.25.39,1.18a45.45,45.45,0,0,0,2.78,5.15c.62.61,2.24.92,4.84.92,3.22,0,4.29-.82,5.46-2,.82-.82,1-2.28,1.05-3.35a3.7,3.7,0,0,1,.23-1.25.3.3,0,0,0,0-.26,2.4,2.4,0,0,0-1.76-.86h0c-1.4-.24-8.13.2-11.49.46Z" style="fill:#263238"></path><path d="M160.08,131.53h-.22c-2.5-.17-4.27-2.7-4.35-2.81a.5.5,0,1,1,.83-.57s1.57,2.25,3.59,2.38,2.85-2.4,2.86-2.42a.5.5,0,0,1,.94.34C163.68,128.57,162.56,131.53,160.08,131.53Z" style="fill:#263238"></path><path d="M154.85,115.48l-.15,0a14.92,14.92,0,0,0-8.55-.47.5.5,0,1,1-.32-.94c.15,0,3.73-1.26,9.17.45a.5.5,0,0,1-.15,1Z" style="fill:#263238"></path><path d="M162.34,115.48a.5.5,0,0,1-.46-.31.49.49,0,0,1,.27-.65c.22-.09,5.42-2.2,9.38-.78a.5.5,0,0,1,.3.64.5.5,0,0,1-.64.3c-3.6-1.29-8.61.74-8.66.76A.43.43,0,0,1,162.34,115.48Z" style="fill:#263238"></path><path d="M176.3,124c-5,2.34-6.93,12-6.93,12s-6.72-4.43-9.47-5-9.48,5.5-9.48,5.5l-3.21-5.8a31.75,31.75,0,0,0-4.85-6.54c.2,4,.48,7.93.88,9.13.92,2.75,10.24,11,12.38,12.08s7.18.91,9.32,0,9.17-8.1,10.69-12.53C176.24,131.09,176.37,127.59,176.3,124Z" style="fill:#263238"></path><path d="M160.07,146.63a11.41,11.41,0,0,1-4.68-.8c-2.07-1-11.62-9.35-12.62-12.36-.36-1.06-.66-4.18-.91-9.27a.52.52,0,0,1,.31-.48.47.47,0,0,1,.55.11,32.33,32.33,0,0,1,4.93,6.65c1.61,2.91,2.49,4.51,2.91,5.25,1.68-1.46,6.87-5.76,9.44-5.2,2.35.52,7.3,3.61,9,4.72.55-2.34,2.6-9.62,7-11.69a.51.51,0,0,1,.48,0,.54.54,0,0,1,.24.42c.08,4.4-.15,7.43-.69,9-1.57,4.54-8.68,11.84-11,12.82A14.26,14.26,0,0,1,160.07,146.63Zm-17.14-21.1c.28,5.16.58,7,.78,7.63.86,2.57,10,10.73,12.13,11.78s6.89.85,8.9,0,9-8,10.42-12.24c.47-1.34.69-4,.65-7.83-4.24,2.74-5.93,11.21-5.95,11.3a.51.51,0,0,1-.3.37.52.52,0,0,1-.47-.05c-.06,0-6.67-4.39-9.3-5-2-.46-7.21,3.73-9,5.38a.5.5,0,0,1-.42.13.51.51,0,0,1-.35-.25s-.77-1.38-3.21-5.81A31.48,31.48,0,0,0,142.93,125.53Z" style="fill:#263238"></path><path d="M162.19,135.65H157a.51.51,0,0,1-.5-.5.5.5,0,0,1,.5-.5h5.2a.5.5,0,0,1,.5.5A.51.51,0,0,1,162.19,135.65Z" style="fill:#fff"></path><path d="M141.56,115.13a24.6,24.6,0,0,0,8.71-3.82c4-2.9,5.2-6.26,8.71-6.26s7.18,3.51,9.17,5.8,6.57,4,7.33,4h.77s-1.69-14.37-2.75-17.27-9-7.49-15.74-7.49-13.6,5.2-14.67,6.88S141.56,115.13,141.56,115.13Z" style="fill:#407BFF"></path><path d="M141.56,115.63a.47.47,0,0,1-.32-.12.5.5,0,0,1-.18-.39c.05-1.71.49-16.69,1.61-18.44s8.15-7.11,15.09-7.11c6.61,0,15,4.55,16.2,7.82,1.08,2.92,2.71,16.79,2.78,17.38a.51.51,0,0,1-.12.39.53.53,0,0,1-.37.17h-.77a16,16,0,0,1-7.71-4.15c-1.47-1.69-5.26-5.63-8.79-5.63-2,0-3.21,1.23-4.85,2.93a26.61,26.61,0,0,1-3.57,3.23,24.79,24.79,0,0,1-8.9,3.91Zm16.2-25.06c-6.47,0-13.2,5-14.25,6.65-.7,1.1-1.24,10.91-1.43,17.28a24.13,24.13,0,0,0,7.89-3.59,25.82,25.82,0,0,0,3.44-3.13c1.68-1.73,3.13-3.23,5.57-3.23,3.8,0,7.61,3.74,9.55,6s6.36,3.81,6.95,3.81h.2c-.32-2.67-1.74-14.1-2.65-16.6C172,95,164.27,90.57,157.76,90.57Z" style="fill:#263238"></path><path d="M159,105.05c3.51,0,7.18,3.51,9.17,5.8s6.57,4,7.33,4h.77C172.58,97.56,157.6,99.7,157.6,99.7c-14,3-16,15.43-16,15.43a24.6,24.6,0,0,0,8.71-3.82C154.24,108.41,155.47,105.05,159,105.05Z" style="fill:#407BFF"></path><path d="M141.56,115.63a.52.52,0,0,1-.35-.14.48.48,0,0,1-.14-.44A20.76,20.76,0,0,1,157.5,99.21c.19,0,15.51-2,19.23,15.51a.46.46,0,0,1-.1.42.47.47,0,0,1-.38.19h-.77a16,16,0,0,1-7.71-4.15c-1.47-1.69-5.26-5.63-8.79-5.63-2,0-3.21,1.23-4.85,2.93a26.61,26.61,0,0,1-3.57,3.23,24.79,24.79,0,0,1-8.9,3.91ZM159.3,100.1a14.23,14.23,0,0,0-1.63.09,19.82,19.82,0,0,0-15.45,14.27,23.88,23.88,0,0,0,7.75-3.55,25.82,25.82,0,0,0,3.44-3.13c1.68-1.73,3.13-3.23,5.57-3.23,3.8,0,7.61,3.74,9.55,6s6.36,3.81,6.95,3.81h.14C172.61,101.46,163.14,100.1,159.3,100.1Z" style="fill:#263238"></path><polygon points="145.03 146.54 157.4 157.81 152.78 168.51 141.52 152.82 145.03 146.54" style="fill:#407BFF"></polygon><path d="M152.78,169a.49.49,0,0,1-.41-.21l-11.26-15.69a.51.51,0,0,1,0-.53l3.51-6.28a.5.5,0,0,1,.77-.13l12.37,11.27a.48.48,0,0,1,.12.56l-4.61,10.71a.5.5,0,0,1-.41.3Zm-10.67-16.22,10.56,14.71,4.13-9.57-11.65-10.59Z" style="fill:#263238"></path><polygon points="175.86 146.54 163.49 157.81 168.1 168.51 179.37 152.82 175.86 146.54" style="fill:#407BFF"></polygon><path d="M168.1,169h0a.51.51,0,0,1-.41-.3L163,158a.48.48,0,0,1,.12-.56l12.37-11.27a.49.49,0,0,1,.42-.12.48.48,0,0,1,.35.25l3.51,6.28a.49.49,0,0,1,0,.53L168.51,168.8A.48.48,0,0,1,168.1,169Zm-4-11.08,4.12,9.57,10.56-14.71-3-5.45Z" style="fill:#263238"></path><path d="M126.62,246.44l2.29,6.52a31.19,31.19,0,0,1-4.93,2.17,32.08,32.08,0,0,0-4.67,2s-1.7-7.05-2.28-10.38,3.5-4.59,4.65-4.83S126.62,246.44,126.62,246.44Z" style="fill:#263238"></path><path d="M119.31,257.61a.52.52,0,0,1-.21,0,.53.53,0,0,1-.28-.34c0-.07-1.71-7.1-2.28-10.41s2.89-5,5-5.41c1.26-.26,3.94,2.85,5.43,4.72a1.09,1.09,0,0,1,.08.15l2.29,6.52a.5.5,0,0,1-.23.6,31.7,31.7,0,0,1-5,2.21,32.44,32.44,0,0,0-4.59,1.94A.46.46,0,0,1,119.31,257.61Zm2.46-15.22h0c-.19,0-4.81,1.05-4.25,4.26.47,2.7,1.7,7.94,2.13,9.73a30.52,30.52,0,0,1,4.18-1.72,28.79,28.79,0,0,0,4.46-1.94l-2.12-6C124.31,244.35,122.3,242.39,121.77,242.39Z" style="fill:#263238"></path><path d="M88.49,199.63s-8.29,7.71-7.7,10.08,24.1,33.38,24.1,33.38,1.58,6.32,2.57,7.9,4.54,3,4.54,3a30,30,0,0,0,3.55,3.56c.79.39,3.56.19,3.76-.4s-.4-3.16-1.19-5.73a10.13,10.13,0,0,1-.2-5.92c.4-.79,3.17-3.76,3.76-3.56s2.76,2.77,3.36,4.15,1.18,1.58,1.58.39-1.39-8.09-1.78-9.08-9.68-4-11.85-4.94a37.19,37.19,0,0,1-4.74-2.76L105.09,216Z" style="fill:#fff"></path><path d="M116.93,258.21a3.93,3.93,0,0,1-1.6-.26,25.54,25.54,0,0,1-3.63-3.58c-.64-.26-3.7-1.57-4.67-3.12s-2.39-7.1-2.6-7.94c-2.69-3.55-23.53-31.1-24.12-33.48-.64-2.53,6.42-9.24,7.84-10.56a.5.5,0,0,1,.7,0l16.59,16.39a.56.56,0,0,1,.13.24l3.12,13.44a35.61,35.61,0,0,0,4.5,2.62c.7.31,2.14.84,3.81,1.44,5.87,2.13,8,3,8.3,3.76s2.28,8,1.79,9.43c-.24.73-.6,1.1-1.06,1.12-.72.05-1.18-.83-1.45-1.47a13.84,13.84,0,0,0-3-3.84,13.68,13.68,0,0,0-3.21,3.27,9.75,9.75,0,0,0,.23,5.56c.36,1.16,1.51,5.05,1.18,6a1,1,0,0,1-.66.61A6.73,6.73,0,0,1,116.93,258.21ZM88.49,200.33c-3.32,3.13-7.56,7.87-7.21,9.26.41,1.66,14.58,20.76,24,33.19a.46.46,0,0,1,.08.19c.44,1.73,1.74,6.51,2.51,7.75s3.35,2.4,4.3,2.76a.56.56,0,0,1,.2.14,26.68,26.68,0,0,0,3.4,3.44,5.24,5.24,0,0,0,3.1-.18,24.15,24.15,0,0,0-1.24-5.35c-.82-2.68-.62-5.38-.16-6.3.24-.49,3.21-4.18,4.36-3.8.84.28,3.09,3.1,3.66,4.42a2.55,2.55,0,0,0,.47.82,1.82,1.82,0,0,0,.17-.38c.31-.94-1.3-7.58-1.77-8.75-.42-.54-5-2.2-7.71-3.19-1.69-.61-3.15-1.14-3.88-1.47a38.61,38.61,0,0,1-4.82-2.81.52.52,0,0,1-.2-.3l-3.13-13.49Zm33.15,42.06Z" style="fill:#263238"></path><path d="M128.59,156.88a39.48,39.48,0,0,1,.21,32.22c-5.65,13-18.48,27.79-18.48,27.79s-8.87.36-14.59-5a66.93,66.93,0,0,1-9.6-11.45s27.88-37.84,30.46-40.06S128.59,156.88,128.59,156.88Z" style="fill:#407BFF"></path><path d="M109.88,217.39c-1.92,0-9.36-.32-14.49-5.12a68.53,68.53,0,0,1-9.68-11.55.5.5,0,0,1,0-.56c1.14-1.55,27.94-37.92,30.54-40.15s11.87-3.57,12.26-3.62a.48.48,0,0,1,.51.26,40.41,40.41,0,0,1,.21,32.65c-5.61,12.9-18.43,27.76-18.56,27.91a.46.46,0,0,1-.35.17ZM86.74,200.47a67.78,67.78,0,0,0,9.33,11.07c5,4.69,12.64,4.89,14,4.85,1.43-1.68,13-15.47,18.26-27.49a39.49,39.49,0,0,0,0-31.47c-1.73.26-9.22,1.48-11.39,3.34C114.92,162.48,96.43,187.32,86.74,200.47Z" style="fill:#263238"></path><path d="M120.7,203.82a.5.5,0,0,1-.48-.35l-6.31-21.34a.5.5,0,0,1,1-.28l4.68,15.81-2.35-20.42a.5.5,0,0,1,.44-.55.48.48,0,0,1,.55.43l3,26.15a.49.49,0,0,1-.4.54Z" style="fill:#263238"></path><path d="M203,153.19a51.29,51.29,0,0,0-4.43-2.77c-.42-.17-4.92-.11-9.7,0-1,2.37-2.42,7.31-2.3,16.42.17,13.49,1.52,30.46,13.79,39.57Z" style="fill:#407BFF"></path><path d="M200.36,206.92a.49.49,0,0,1-.3-.1c-12-8.9-13.8-25.2-14-40-.12-9,1.2-14,2.34-16.63a.48.48,0,0,1,.44-.3c9.28-.22,9.7-.05,9.9,0a45,45,0,0,1,4.53,2.82.5.5,0,0,1,.22.43l-2.64,53.24a.48.48,0,0,1-.29.42A.38.38,0,0,1,200.36,206.92Zm-11.16-56c-1.06,2.62-2.24,7.46-2.13,15.93.18,14.2,1.87,29.82,12.84,38.59l2.57-52a45.18,45.18,0,0,0-4.1-2.56C198.2,150.84,196.89,150.74,189.2,150.92Z" style="fill:#263238"></path><path d="M212.41,189.56s6.24-6.28,8.3-13.49S205,172.2,205,172.2,207.47,182.45,212.41,189.56Z" style="fill:#263238"></path><path d="M212.41,190.06h0a.51.51,0,0,1-.37-.21c-4.94-7.11-7.46-17.43-7.49-17.53a.5.5,0,0,1,.07-.39.52.52,0,0,1,.32-.22c.51-.09,12.51-2.31,15.68,1.17a3.3,3.3,0,0,1,.61,3.32c-2.07,7.26-8.16,13.45-8.42,13.71A.49.49,0,0,1,212.41,190.06Zm-6.79-17.46c.55,2.1,2.86,10.16,6.86,16.17,1.42-1.55,6.06-6.91,7.75-12.84a2.33,2.33,0,0,0-.39-2.38C217.63,171.13,209.28,172,205.62,172.6Z" style="fill:#263238"></path><path d="M189.15,167a19,19,0,0,0,9,18.64l14.21,3.88s-6.64-9.78-6.46-19.75S210,153.74,210,153.74l-7-.55-4.8-.74a9.7,9.7,0,0,0-2.22,3.69" style="fill:#407BFF"></path><path d="M212.41,190.06l-.13,0-14.21-3.87-.11,0A19.71,19.71,0,0,1,188.65,167a.51.51,0,0,1,.56-.44.5.5,0,0,1,.44.55,18.68,18.68,0,0,0,8.74,18.13l12.91,3.52c-1.72-2.85-6-10.77-5.85-18.94a34.88,34.88,0,0,1,3.74-15.62l-6.23-.49-4.59-.71a11,11,0,0,0-1.92,3.35.5.5,0,1,1-.93-.37,10,10,0,0,1,2.36-3.89.5.5,0,0,1,.39-.11l4.8.74,7,.54a.51.51,0,0,1,.41.28.5.5,0,0,1,0,.49c0,.06-3.81,6.11-4,15.8s6.31,19.37,6.38,19.47a.51.51,0,0,1,0,.57A.51.51,0,0,1,212.41,190.06Z" style="fill:#263238"></path><path d="M208.91,152.08s-3.51-2.77-6.1-4.61-3.32-3.51-5.17-7.39-2-5.17-4.8-7.2-1.47-2.4-.74-2.77a9.8,9.8,0,0,1,5.91.56c1.66.92,3.88,4.24,3.88,4.24l2.58.56,5.82-21.85a1.06,1.06,0,0,1,1.32-.74h0a1.07,1.07,0,0,1,.75,1.09l-1.05,15.22,1.47.37,6.27-17.24a1.06,1.06,0,0,1,1.4-.62l.42.18a1,1,0,0,1,.63,1.15l-3,17.64,7.65-14.28a1.07,1.07,0,0,1,1.37-.46l.29.14a1.05,1.05,0,0,1,.57,1.26l-4.71,15.37,6.4-6.24a1,1,0,0,1,1.53.06l.07.08a1.07,1.07,0,0,1,.13,1.21l-5.92,10.61s-2,7.75-2.21,9.05a16.27,16.27,0,0,1-.74,2.77s5,11.07,4.61,16.61-3.14,12-4.24,12.56-5,1.29-9.23.55a28.74,28.74,0,0,1-7.21-2.22s-3.5-14,3.14-24Z" style="fill:#fff"></path><path d="M217.73,180.77a21.56,21.56,0,0,1-3.74-.32,29,29,0,0,1-7.34-2.26.49.49,0,0,1-.26-.32c-.14-.58-3.42-14.11,3-24.12l-.88-1.32c-.48-.38-3.65-2.87-6-4.56-2.61-1.86-3.41-3.55-5.17-7.24l-.16-.33c-.33-.7-.61-1.31-.86-1.86-1.14-2.52-1.61-3.56-3.78-5.16-1.39-1-2-1.74-1.89-2.41s.67-.94,1.07-1.13l.15-.08a10.09,10.09,0,0,1,6.38.57c1.54.86,3.44,3.53,3.93,4.23l1.92.42,5.69-21.39a1.52,1.52,0,0,1,.75-.95,1.49,1.49,0,0,1,1.2-.13,1.55,1.55,0,0,1,1.11,1.59l-1,14.81.64.15,6.11-16.81a1.58,1.58,0,0,1,.84-.9,1.57,1.57,0,0,1,1.22,0l.42.18a1.54,1.54,0,0,1,.94,1.69l-2.49,14.62,6.21-11.57a1.55,1.55,0,0,1,2-.68l.3.13a1.56,1.56,0,0,1,.84,1.87L224.73,131l5-4.87a1.55,1.55,0,0,1,2.25.09l.08.08a1.56,1.56,0,0,1,.18,1.78l-5.88,10.56c-.19.73-2,7.74-2.19,8.93a15.66,15.66,0,0,1-.69,2.68c.67,1.52,4.92,11.4,4.57,16.66-.37,5.61-3.13,12.28-4.52,13A15.46,15.46,0,0,1,217.73,180.77Zm-10.42-3.37a29.86,29.86,0,0,0,6.85,2.07c4.1.71,7.89,0,8.92-.51.78-.39,3.6-6.48,4-12.14.36-5.35-4.52-16.27-4.57-16.38a.5.5,0,0,1,0-.38,15.26,15.26,0,0,0,.71-2.66c.19-1.31,2.14-8.79,2.23-9.11a.36.36,0,0,1,0-.11l5.92-10.62a.54.54,0,0,0-.07-.63l-.07-.08a.51.51,0,0,0-.39-.19.55.55,0,0,0-.41.15l-6.4,6.24a.5.5,0,0,1-.61.07.49.49,0,0,1-.22-.57l4.71-15.36a.56.56,0,0,0-.3-.67l-.29-.13a.57.57,0,0,0-.72.24L219,130.9a.5.5,0,0,1-.94-.32l3-17.64a.55.55,0,0,0-.33-.6l-.42-.17a.56.56,0,0,0-.44,0,.53.53,0,0,0-.3.32l-6.27,17.24a.5.5,0,0,1-.59.31l-1.48-.37a.49.49,0,0,1-.37-.52l1.05-15.22a.55.55,0,0,0-.82-.52.51.51,0,0,0-.27.34L205,135.59a.5.5,0,0,1-.59.36l-2.58-.55a.54.54,0,0,1-.32-.21s-2.16-3.23-3.7-4.09a9.55,9.55,0,0,0-5.44-.54l-.17.08c-.12.06-.5.24-.51.32s0,.41,1.49,1.52c2.38,1.74,3,3,4.1,5.55.25.54.53,1.15.86,1.84l.16.33c1.72,3.64,2.44,5.14,4.84,6.86,2.57,1.83,6.08,4.6,6.12,4.63a.52.52,0,0,1,.1.11l1.11,1.67a.5.5,0,0,1,0,.55C204.44,163,206.9,175.56,207.31,177.4Z" style="fill:#263238"></path><path d="M217.88,152a2,2,0,0,1-.35,0c-1.67-.18-6.13-1.07-6.32-1.11a.49.49,0,0,1-.39-.59.48.48,0,0,1,.58-.39s4.62.92,6.24,1.1c1.26.15,4.12-.86,5.11-1.26a.5.5,0,1,1,.37.93A19.18,19.18,0,0,1,217.88,152Z" style="fill:#263238"></path><path d="M211.86,144.27a.51.51,0,0,1-.47-.32,25.7,25.7,0,0,0-2.84-5.36,12,12,0,0,0-3-1.55.5.5,0,1,1,.36-.93,13,13,0,0,1,3.31,1.77,25.94,25.94,0,0,1,3.07,5.72.51.51,0,0,1-.29.64Z" style="fill:#263238"></path><path d="M224.6,134.49a.51.51,0,0,1-.17,0l-15.51-5.54a.5.5,0,0,1-.3-.64.49.49,0,0,1,.64-.3l15.51,5.54a.5.5,0,0,1-.17,1Z" style="fill:#263238"></path><path d="M129.78,250.93l-16.66,7.39,3.47,26.49a3.75,3.75,0,0,0,2.36,3h0a3.75,3.75,0,0,0,5-2.5L132.82,253Z" style="fill:#696969"></path><path d="M120.31,288.57a4.29,4.29,0,0,1-1.54-.29,4.25,4.25,0,0,1-2.67-3.41l-3.48-26.48a.51.51,0,0,1,.29-.53l16.66-7.38a.48.48,0,0,1,.48,0l3,2a.48.48,0,0,1,.2.54l-8.89,32.35a4.29,4.29,0,0,1-2.19,2.68A4.39,4.39,0,0,1,120.31,288.57Zm-6.65-29.94,3.43,26.11a3.25,3.25,0,0,0,6.35.44l8.8-32-2.51-1.68Z" style="fill:#263238"></path><path d="M133.21,252.2l-1.3,21.16,5.28,1.51s9.62-21.3,9.62-22.43c0-.6-1.89-2.51-3.68-4.18a5.9,5.9,0,0,0-6.73-.94h0A5.91,5.91,0,0,0,133.21,252.2Z" style="fill:#696969"></path><path d="M137.19,275.37a.36.36,0,0,1-.14,0l-5.27-1.51a.5.5,0,0,1-.37-.51l1.31-21.16h0a6.39,6.39,0,0,1,10.75-4.27c3.84,3.58,3.84,4.2,3.84,4.54,0,1.15-7.4,17.62-9.66,22.64A.52.52,0,0,1,137.19,275.37ZM132.44,273l4.47,1.28c3.78-8.37,9.27-20.82,9.4-21.85,0-.07-.3-.78-3.52-3.79a5.4,5.4,0,0,0-9.08,3.61Z" style="fill:#263238"></path><path d="M173.48,269h0a3.67,3.67,0,0,1-3.67-3.68v-16a3.67,3.67,0,0,1,3.67-3.68h0a3.68,3.68,0,0,1,3.68,3.68v16A3.68,3.68,0,0,1,173.48,269Z" style="fill:#696969"></path><path d="M173.48,269.53a4.18,4.18,0,0,1-4.17-4.18v-16a4.18,4.18,0,1,1,8.35,0v16A4.18,4.18,0,0,1,173.48,269.53Zm0-23.38a3.18,3.18,0,0,0-3.17,3.18v16a3.18,3.18,0,1,0,6.35,0v-16A3.19,3.19,0,0,0,173.48,246.15Z" style="fill:#263238"></path><path d="M180.83,269h0a3.67,3.67,0,0,1-3.67-3.68v-16a3.67,3.67,0,0,1,3.67-3.68h0a3.68,3.68,0,0,1,3.68,3.68v16A3.68,3.68,0,0,1,180.83,269Z" style="fill:#696969"></path><path d="M180.83,269.53a4.18,4.18,0,0,1-4.17-4.18v-16a4.18,4.18,0,1,1,8.35,0v16A4.18,4.18,0,0,1,180.83,269.53Zm0-23.38a3.18,3.18,0,0,0-3.17,3.18v16a3.18,3.18,0,1,0,6.35,0v-16A3.18,3.18,0,0,0,180.83,246.15Z" style="fill:#263238"></path><path d="M188.19,269h0a3.68,3.68,0,0,1-3.68-3.68v-16a3.68,3.68,0,0,1,3.68-3.68h0a3.67,3.67,0,0,1,3.67,3.68v16A3.67,3.67,0,0,1,188.19,269Z" style="fill:#696969"></path><path d="M188.19,269.53a4.18,4.18,0,0,1-4.18-4.18v-16a4.18,4.18,0,1,1,8.35,0v16A4.18,4.18,0,0,1,188.19,269.53Zm0-23.38a3.19,3.19,0,0,0-3.18,3.18v16a3.18,3.18,0,1,0,6.35,0v-16A3.18,3.18,0,0,0,188.19,246.15Z" style="fill:#263238"></path><rect x="194.88" y="245.84" width="9.99" height="29.6" rx="2.43" style="fill:#263238"></rect><path d="M202.44,275.94h-5.13a2.93,2.93,0,0,1-2.93-2.93V248.27a2.93,2.93,0,0,1,2.93-2.93h5.13a2.93,2.93,0,0,1,2.93,2.93V273A2.93,2.93,0,0,1,202.44,275.94Zm-5.13-29.6a1.94,1.94,0,0,0-1.93,1.93V273a1.94,1.94,0,0,0,1.93,1.93h5.13a1.93,1.93,0,0,0,1.93-1.93V248.27a1.93,1.93,0,0,0-1.93-1.93Z" style="fill:#263238"></path><path d="M207.74,226.75a1.5,1.5,0,0,0-2,.76,42.74,42.74,0,0,0-1.76,5.11,1.5,1.5,0,0,0,.18,1.21c-1.49,5.47-2.71,11.75-2.72,11.82a1,1,0,0,0,.79,1.17l.19,0a1,1,0,0,0,1-.81c0-.07,1.22-6.29,2.69-11.67a1.48,1.48,0,0,0,.78-.91,38.37,38.37,0,0,1,1.61-4.72A1.49,1.49,0,0,0,207.74,226.75Z" style="fill:#263238"></path><path d="M202.44,247.34a1.33,1.33,0,0,1-.28,0,1.49,1.49,0,0,1-1.19-1.75c0-.06,1.2-6.21,2.68-11.66a2,2,0,0,1-.13-1.42,40.18,40.18,0,0,1,1.79-5.17,2,2,0,0,1,1.11-1.06,2,2,0,0,1,1.53,0,2,2,0,0,1,1,2.64,38,38,0,0,0-1.59,4.66,2,2,0,0,1-.83,1.1c-1.44,5.3-2.62,11.37-2.63,11.43A1.49,1.49,0,0,1,202.44,247.34Zm4.69-20.22a1,1,0,0,0-.91.59,42.34,42.34,0,0,0-1.74,5,1,1,0,0,0,.13.81.55.55,0,0,1,.06.4c-1.5,5.47-2.71,11.71-2.72,11.77a.46.46,0,0,0,.08.38.45.45,0,0,0,.32.21.51.51,0,0,0,.58-.4c0-.05,1.22-6.28,2.7-11.7a.52.52,0,0,1,.26-.32,1,1,0,0,0,.52-.6,38.28,38.28,0,0,1,1.64-4.79,1,1,0,0,0-.51-1.32h0A1.15,1.15,0,0,0,207.13,227.12Z" style="fill:#263238"></path><rect x="151.65" y="246.78" width="16.12" height="9.72" style="fill:#fff"></rect><path d="M168.27,257H151.15V246.28h17.12Zm-16.12-1h15.12v-8.72H152.15Z" style="fill:#263238"></path><rect x="154.35" y="248.41" width="10.73" height="6.47" style="fill:#696969"></rect><path d="M165.07,255.38H154.35a.5.5,0,0,1-.5-.5v-6.47a.5.5,0,0,1,.5-.5h10.72a.5.5,0,0,1,.5.5v6.47A.5.5,0,0,1,165.07,255.38Zm-10.22-1h9.72v-5.47h-9.72Z" style="fill:#263238"></path></g></svg>
